<svg width="96" height="96" xmlns="http://www.w3.org/2000/svg" xmlns:xlink="http://www.w3.org/1999/xlink" xml:space="preserve" overflow="hidden"><g transform="translate(-592 -312)"><path d="M670.563 328.991 609.4 328.991C607.53 329.009 606.018 330.521 606 332.391L606 373.666C605.983 375.527 607.479 377.049 609.34 377.066 609.36 377.066 609.38 377.066 609.4 377.066L646.78 377.066 660.368 390.957 660.368 377.164 670.568 377.164C672.438 377.146 673.95 375.634 673.968 373.764L673.968 332.489C673.991 330.584 672.468 329.019 670.563 328.991ZM651.863 355.059 642.21 355.059 642.21 364.712 637.8 364.712 637.8 355.059 628.149 355.059 628.149 350.651 637.8 350.651 637.8 341 642.21 341 642.21 350.653 651.863 350.653Z" stroke="#000000" fill="#4CAF50"/></g></svg>