<svg width="96" height="96" xmlns="http://www.w3.org/2000/svg" xmlns:xlink="http://www.w3.org/1999/xlink" xml:space="preserve" overflow="hidden"><g transform="translate(-592 -312)"><path d="M652 339C652 347.837 644.837 355 636 355 627.163 355 620 347.837 620 339 620 330.163 627.163 323 636 323 644.837 323 652 330.163 652 339Z" stroke="#000000" fill="#4CAF50"/><path d="M642 383C642.017 373.713 648.739 365.797 657.9 364.276 655.1 362.935 652.189 361.839 649.2 361 644.922 359.69 640.474 359.017 636 359 631.531 359.077 627.092 359.75 622.8 361 617.207 362.632 611.932 365.202 607.2 368.6 605.227 370.145 604.052 372.495 604 375L604 391 643.79 391C642.614 388.497 642.003 385.766 642 383Z" stroke="#000000" fill="#4CAF50"/><path d="M661 368C652.716 368 646 374.716 646 383 646 391.284 652.716 398 661 398 669.284 398 676 391.284 676 383 676 374.716 669.284 368 661 368ZM668 384 662.5 384 662.5 389.5 659.5 389.5 659.5 384 654 384 654 381 659.5 381 659.5 375.5 662.5 375.5 662.5 381 668 381Z" stroke="#000000" fill="#4CAF50"/></g></svg>