<?xml version="1.0" standalone="no"?>
<!DOCTYPE svg PUBLIC "-//W3C//DTD SVG 20010904//EN"
 "http://www.w3.org/TR/2001/REC-SVG-20010904/DTD/svg10.dtd">
<svg version="1.0" xmlns="http://www.w3.org/2000/svg"
 width="512.000000pt" height="512.000000pt" viewBox="0 0 512.000000 512.000000"
 preserveAspectRatio="xMidYMid meet">
<metadata>
Created by potrace 1.14, written by Peter Selinger 2001-2017
</metadata>
<g transform="translate(0.000000,512.000000) scale(0.100000,-0.100000)"
fill="#000000" stroke="none">
<path d="M0 2560 l0 -2560 2560 0 2560 0 0 2560 0 2560 -2560 0 -2560 0 0
-2560z m3577 1405 c55 -28 99 -77 119 -134 9 -25 13 -101 14 -242 l0 -206 -97
-132 -98 -132 -5 326 c-4 275 -7 327 -20 335 -22 14 -1925 13 -1951 0 -19 -11
-19 -35 -19 -1243 0 -946 3 -1236 12 -1245 9 -9 241 -12 985 -12 951 0 973 0
983 19 6 13 10 170 10 442 l0 422 98 130 97 131 3 -575 c2 -513 1 -579 -14
-618 -21 -55 -66 -106 -118 -134 l-41 -22 -1020 0 -1020 0 -54 30 c-64 35
-105 93 -121 169 -7 35 -10 441 -8 1291 l3 1240 24 48 c26 53 81 105 132 123
26 10 277 13 1045 13 l1010 1 51 -25z m499 -481 c85 -57 124 -95 135 -132 14
-48 -1 -104 -40 -151 l-29 -35 -88 71 c-49 38 -117 89 -151 112 -35 23 -63 44
-63 47 0 14 58 79 85 96 44 26 104 23 151 -8z m-921 -90 c32 -21 50 -79 36
-116 -6 -16 -25 -37 -43 -48 -32 -20 -47 -20 -646 -18 l-614 3 -29 33 c-40 44
-40 93 0 133 l29 29 622 0 c554 0 623 -2 645 -16z m696 -111 c114 -77 240
-184 232 -196 -4 -7 -212 -286 -463 -622 -387 -518 -462 -613 -496 -629 -21
-10 -95 -43 -163 -73 -166 -74 -162 -79 -131 147 l24 171 463 620 c255 340
467 619 472 619 5 0 33 -17 62 -37z m-694 -408 c32 -23 48 -79 33 -116 -26
-62 5 -59 -681 -59 l-627 0 -26 31 c-36 43 -35 91 3 130 l29 29 624 0 c539 0
626 -2 645 -15z m-214 -517 c-4 -7 -36 -50 -71 -95 l-63 -83 -461 0 -460 0
-29 29 c-21 22 -29 39 -29 66 0 27 8 44 29 66 l29 29 532 0 c422 0 530 -3 523
-12z m-391 -508 c79 -22 103 -116 43 -167 -26 -23 -28 -23 -366 -23 l-341 0
-29 29 c-49 49 -30 135 35 161 31 13 613 12 658 0z"/>
</g>
</svg>
